Coordinates
version=1
nRows=16
nColumns=40
inDegrees=yes

Units are S.I. units (second, meters, Newtons, ...)
Angles are in degrees.

endheader
time	pelvis_tilt	pelvis_list	pelvis_rotation	pelvis_tx	pelvis_ty	pelvis_tz	hip_flexion_r	hip_adduction_r	hip_rotation_r	knee_angle_r	knee_angle_r_beta	ankle_angle_r	subtalar_angle_r	mtp_angle_r	hip_flexion_l	hip_adduction_l	hip_rotation_l	knee_angle_l	knee_angle_l_beta	ankle_angle_l	subtalar_angle_l	mtp_angle_l	lumbar_extension	lumbar_bending	lumbar_rotation	arm_flex_r	arm_add_r	arm_rot_r	elbow_flex_r	pro_sup_r	wrist_flex_r	wrist_dev_r	arm_flex_l	arm_add_l	arm_rot_l	elbow_flex_l	pro_sup_l	wrist_flex_l	wrist_dev_l
     32.63792857	     -6.49820952	     -4.76051384	     -9.78592482	      1.00317509	      0.92946268	      0.43240485	     27.96774419	     -2.77087207	     -5.28446842	     16.27594403	     16.27594403	      1.14331337	      8.82426536	      7.71340277	     11.91192466	     -4.99208935	    -14.20984425	     19.85184626	     19.85184626	     15.61968201	    -13.37745247	     -1.52294882	     -9.45845914	      4.86005210	      0.64584944	    -19.10000812	    -14.82445985	     -6.55910729	     38.19469697	     46.30880550	      0.00000000	      0.00000000	     36.50707718	    -21.41004147	     -5.28094662	     79.23757975	     48.21086694	      0.00000000	      0.00000000
     32.66085714	     -6.70344037	     -4.50031496	     -9.93048616	      1.00445902	      0.92877983	      0.43535198	     27.62824322	     -2.95996289	     -5.29723636	     16.44790683	     16.44790683	      0.41988697	      8.83565224	      6.57337449	     11.55108791	     -4.88720983	    -14.49612473	     19.55957131	     19.55957131	     15.72134214	    -13.10853135	     -1.77624544	     -9.22658572	      4.69479164	      0.39562472	    -18.97610340	    -14.70911604	     -6.39579622	     40.86178834	     46.17677490	      0.00000000	      0.00000000	     36.83246783	    -21.56036760	     -7.29240315	     82.86779148	     48.41058606	      0.00000000	      0.00000000
     32.68378571	     -6.87948492	     -4.24369435	     -9.92155876	      1.00614338	      0.92786770	      0.43830752	     27.05447551	     -3.18552516	     -5.32840792	     16.49731294	     16.49731294	     -0.19427612	      8.69918097	      4.96126652	     11.26826831	     -4.77911435	    -14.55706715	     19.48459029	     19.48459029	     15.94316194	    -12.93222246	     -1.86540287	     -8.95398551	      4.55975857	     -0.02092151	    -18.68366185	    -14.71530875	     -5.83252808	     43.58582034	     46.02450581	      0.00000000	      0.00000000	     36.92690449	    -21.63785615	     -9.23905919	     86.10804683	     48.59320702	      0.00000000	      0.00000000
     32.70671429	     -6.92489603	     -3.98793381	     -9.83096575	      1.00815873	      0.92696235	      0.44148634	     26.36585782	     -3.43723976	     -5.32112986	     16.75631891	     16.75631891	      0.00753245	      8.53111762	      4.54023453	     10.89682852	     -4.65909648	    -14.49197877	     19.53028822	     19.53028822	     16.19430596	    -12.89072827	     -1.91353548	     -8.76444121	      4.39008689	      0.13989546	    -17.91581788	    -14.49032783	     -5.65031599	     44.42271475	     45.98486168	      0.00000000	      0.00000000	     37.80982698	    -21.52358025	     -9.65660350	     87.26713458	     48.64611626	      0.00000000	      0.00000000
     32.72964286	     -7.00586977	     -3.72905704	     -9.72574470	      1.01054639	      0.92592872	      0.44492584	     25.58913304	     -3.62238466	     -5.23734047	     16.75392283	     16.75392283	      0.07978568	      8.26864011	      3.03067880	     10.51738063	     -4.54852158	    -14.38616953	     19.54560951	     19.54560951	     16.60730960	    -12.72941700	     -1.64277985	     -8.59680007	      4.30326006	     -0.12156948	    -17.61705912	    -14.62866477	     -5.35643964	     47.67039046	     45.83790997	      0.00000000	      0.00000000	     37.03490010	    -21.22441465	    -11.63312414	     90.74019089	     48.82570876	      0.00000000	      0.00000000
     32.75257143	     -7.04899092	     -3.52948235	     -9.53588174	      1.01308162	      0.92503593	      0.44877479	     24.80278803	     -3.73125656	     -5.20722618	     16.80140714	     16.80140714	      0.80711711	      8.12212461	      2.66294590	     10.15036840	     -4.53695280	    -14.19469530	     19.67617411	     19.67617411	     16.82532298	    -12.71741509	     -1.67105335	     -8.31689335	      4.17076991	     -0.02017375	    -16.65327220	    -14.55086514	     -5.30453269	     48.44582951	     45.81099940	      0.00000000	      0.00000000	     37.21609295	    -20.94714600	    -11.75180133	     91.25225754	     48.84276147	      0.00000000	      0.00000000
     32.77550000	     -6.98883547	     -3.35804361	     -9.37616755	      1.01590143	      0.92448163	      0.45302278	     23.85489752	     -3.71358962	     -4.95818398	     16.62833128	     16.62833128	      1.43255278	      7.70403903	      1.62942004	      9.50529565	     -4.52759773	    -14.01012290	     19.56007278	     19.56007278	     17.20701841	    -12.51613169	     -1.14323360	     -8.36436799	      4.12090682	     -0.41463608	    -16.33791192	    -14.81108319	     -5.41363427	     52.12863680	     45.67562370	      0.00000000	      0.00000000	     35.93019217	    -20.88992199	    -13.56482971	     94.05175564	     48.99448416	      0.00000000	      0.00000000
     32.79842857	     -7.10848128	     -3.25108732	     -9.15325001	      1.01853152	      0.92387884	      0.45766739	     23.21265945	     -3.60082392	     -4.90036677	     16.53924320	     16.53924320	      2.20128635	      7.46014071	      0.91995493	      9.17569456	     -4.69682658	    -13.80119622	     19.66426981	     19.66426981	     17.50053801	    -12.28640571	     -0.86601226	     -8.09706163	      4.09254148	     -0.70590846	    -15.50051389	    -15.09234994	     -5.34631910	     54.49499519	     45.58828453	      0.00000000	      0.00000000	     34.87788130	    -20.86249357	    -14.27189145	     94.62189682	     49.03254829	      0.00000000	      0.00000000
     32.82135714	     -7.19616750	     -3.20592695	     -8.91633457	      1.02117295	      0.92359135	      0.46267793	     22.66046793	     -3.40548461	     -4.93323080	     16.59472488	     16.59472488	      3.16362110	      7.25821342	      0.56644983	      8.72892096	     -4.93618471	    -13.62885979	     19.60337275	     19.60337275	     17.55863369	    -12.15232227	     -0.81138601	     -7.88012568	      4.05726609	     -0.49855190	    -14.39362815	    -15.30861828	     -5.47044906	     55.26537616	     45.57160467	      0.00000000	      0.00000000	     34.04815045	    -20.33098337	    -14.09771003	     94.48630604	     49.01187544	      0.00000000	      0.00000000
     32.84428571	     -7.19619086	     -3.21367939	     -8.67423072	      1.02390278	      0.92381048	      0.46811672	     22.00904591	     -3.07583722	     -4.70970424	     16.55402059	     16.55402059	      3.99436657	      6.69377488	      0.23838757	      8.01592113	     -5.25787495	    -13.65377404	     19.25983255	     19.25983255	     17.64101271	    -11.52733518	     -0.58914955	     -7.81739436	      4.07416560	     -0.97154320	    -13.47888313	    -15.62950435	     -5.99443118	     58.14836283	     45.49458855	      0.00000000	      0.00000000	     32.33552655	    -20.57824736	    -14.64265915	     94.23827336	     49.02317358	      0.00000000	      0.00000000
     32.86721429	     -7.31964925	     -3.26990068	     -8.40892966	      1.02633271	      0.92396100	      0.47377574	     21.65269126	     -2.71767373	     -4.80857505	     16.72639541	     16.72639541	      4.81025577	      6.46484360	     -0.06764183	      7.55775856	     -5.66917202	    -13.51654481	     19.09782023	     19.09782023	     17.58597828	    -11.27362982	     -0.51907264	     -7.64181529	      4.01597005	     -0.79614641	    -12.24862052	    -16.06202425	     -6.24133079	     59.01060834	     45.48069705	      0.00000000	      0.00000000	     30.95674570	    -19.85215007	    -14.31359507	     93.68715757	     48.98142252	      0.00000000	      0.00000000
     32.89014286	     -7.35105621	     -3.39485500	     -8.13152393	      1.02887980	      0.92447522	      0.47976517	     21.18227948	     -2.21790362	     -4.64541179	     16.86001211	     16.86001211	      5.54034407	      5.72044993	     -0.22501766	      6.86872274	     -6.25952833	    -13.94691437	     18.76200950	     18.76200950	     17.63920189	     -9.95487297	     -0.57828052	     -7.62214804	      4.15382127	     -1.14717448	    -11.83633884	    -16.65888300	     -6.83454986	     63.33346877	     45.35846165	      0.00000000	      0.00000000	     29.02637946	    -19.88295396	    -14.56870180	     91.97221298	     48.93527266	      0.00000000	      0.00000000
     32.91307143	     -7.39967095	     -3.48233949	     -7.80554175	      1.03127061	      0.92512288	      0.48577712	     20.79319419	     -1.80847762	     -4.74181378	     17.06294561	     17.06294561	      6.16269631	      5.30834438	     -0.39155572	      6.21226807	     -6.75094961	    -14.09381388	     18.33804645	     18.33804645	     17.45944523	     -9.17210591	     -0.56528313	     -7.51430901	      4.10623893	     -1.42549795	    -10.42319168	    -17.17519188	     -7.25825356	     64.79151628	     45.33312103	      0.00000000	      0.00000000	     27.13570340	    -19.67704640	    -14.13736754	     89.81972195	     48.84860148	      0.00000000	      0.00000000
     32.93600000	     -7.49316498	     -3.63340137	     -7.47090609	      1.03362527	      0.92575518	      0.49183245	     20.47688748	     -1.33368709	     -4.92792000	     17.32369067	     17.32369067	      6.69842692	      4.93860222	     -0.56094350	      5.62710802	     -7.32726478	    -14.21923158	     17.94964915	     17.94964915	     17.24951064	     -8.45081777	     -0.53871941	     -7.40063854	      4.11436417	     -1.54552395	     -9.07542863	    -17.87674333	     -7.61991279	     65.95890142	     45.31451408	      0.00000000	      0.00000000	     25.00959129	    -19.15144478	    -13.66609747	     87.78543015	     48.76315142	      0.00000000	      0.00000000
     32.95892857	     -7.50493277	     -3.73673474	     -7.05205613	      1.03590349	      0.92653316	      0.49789637	     20.00018479	     -0.90754217	     -5.09035963	     17.43850565	     17.43850565	      7.16045957	      4.43118543	     -0.58844382	      5.03622734	     -7.92745680	    -14.59694523	     17.67248605	     17.67248605	     17.09380751	     -7.14697313	     -0.74361026	     -7.34095761	      4.05547117	     -2.01564497	     -7.58455307	    -18.56958563	     -7.76960731	     67.84553642	     45.26548055	      0.00000000	      0.00000000	     23.00869815	    -18.91574687	    -13.18230347	     84.25282540	     48.64702585	      0.00000000	      0.00000000
     32.98185714	     -7.55058735	     -3.96741261	     -6.66010330	      1.03809798	      0.92715142	      0.50398790	     19.56534044	     -0.33759689	     -5.29302658	     17.58942413	     17.58942413	      7.58799823	      3.92262247	     -0.49394851	      4.63500716	     -8.79046206	    -15.26545044	     17.74401520	     17.74401520	     17.07970417	     -5.47292520	     -1.08591589	     -7.20437821	      4.13636266	     -1.41707105	     -7.07279923	    -19.98199582	     -7.38846264	     70.13325314	     45.18743199	      0.00000000	      0.00000000	     21.97406244	    -17.61360153	    -12.02847804	     79.36666275	     48.45816761	      0.00000000	      0.00000000
